<svg id="Layer_1" data-name="Layer 1" xmlns="http://www.w3.org/2000/svg" viewBox="0 0 860.29 771"><defs><style>.cls-1{fill:#9acd66;}</style></defs><title>check</title><path class="cls-1" d="M1.07,468l77.45,42c48.64,26.37,97.33,52.64,145.86,79.22,5.71,3.13,8.47,1.65,12-3q73.92-99.39,156.38-191.83c58.22-65,119.35-127.15,184.23-185.58C644,148.28,714.55,92.32,790.31,43.13c22.77-14.79,46.23-28.53,70-43.13C820.73,37.66,780.93,73.86,743.1,112c-38.26,38.6-75.69,78.15-111.41,119.1C596.14,271.86,562,314,529.38,357.11s-63.74,87.5-93.49,132.65C406,535.12,377.71,581.6,350.36,628.54,323.17,675.19,298,723,271.6,771L0,468.93Z"/></svg>